<svg width="20" height="11" viewBox="0 0 20 11" fill="none" xmlns="http://www.w3.org/2000/svg">
<path d="M0.400182 0.48018C0.534119 0.335713 0.695202 0.219045 0.874232 0.136838C1.05326 0.0546313 1.24673 0.00849564 1.44359 0.00106689C1.64046 -0.00636186 1.83685 0.0250615 2.02157 0.0935422C2.20629 0.162023 2.37571 0.266219 2.52015 0.400182L10 7.45407L17.4799 0.400182C17.6244 0.266236 17.7938 0.162053 17.9785 0.0935823C18.1632 0.0251115 18.3596 -0.00630636 18.5565 0.0011222C18.7533 0.00855077 18.9468 0.0546804 19.1258 0.136877C19.3048 0.219074 19.4659 0.335729 19.5999 0.48018C19.7338 0.624632 19.838 0.794053 19.9065 0.978768C19.9749 1.16348 20.0064 1.35987 19.9989 1.55673C19.9915 1.75359 19.9454 1.94706 19.8632 2.12609C19.781 2.30511 19.6643 2.4662 19.5199 2.60015L11.02 10.6C10.7426 10.8573 10.3783 11.0002 10 11.0002C9.62174 11.0002 9.25741 10.8573 8.98004 10.6L0.480181 2.60015C0.335714 2.46621 0.219045 2.30513 0.136838 2.1261C0.0546308 1.94707 0.00849564 1.7536 0.00106689 1.55673C-0.00636186 1.35987 0.0250615 1.16347 0.0935422 0.978758C0.162023 0.794041 0.26622 0.624624 0.400182 0.48018V0.48018Z" fill="#202025"/>
</svg>
